{"title":"Hunting Hitler S01E06 (2015) x264","uid":12877468,"size":359083393,"categoryP":"video","categoryS":"tv_shows","magnet":"?xt=urn:btih:f156454172102e7bb067b81035478cb483b7144b&amp;dn=Hunting+Hitler+S01E06+%282015%29+x264&amp;tr=udp%3A%2F%2Ftracker.leechers-paradise.org%3A6969&amp;tr=udp%3A%2F%2Fzer0day.ch%3A1337&amp;tr=udp%3A%2F%2Fopen.demonii.com%3A1337&amp;tr=udp%3A%2F%2Ftracker.coppersurfer.tk%3A6969&amp;tr=udp%3A%2F%2Fexodus.desync.com%3A6969","seeders":1,"leechers":0,"uploader":"Pyre8Storm","files":1,"time":1448974160,"description":"Hitler's Safehouse\r\n\r\nIn 2014, the FBI discovered the possibility that Hitler may have escaped to South America; with declassified intelligence providing new clues, an attempt to solve the mystery surrounding the demise of the biggest criminal of all time.\r\n\r\nScreens:\r\n \nhttp://extraimago.com/image/pkl\r\n\r\nFormat                                   : MPEG-4\r\nFormat profile                           : Base Media / Version 2\r\nCodec ID                                 : mp42\r\nFile size                                : 342 MiB\r\nDuration                                 : 41mn 8s\r\nOverall bit rate mode                    : Variable\r\nOverall bit rate                         : 1 164 Kbps\r\n\r\nVideo\r\nID                                       : 1\r\nFormat                                   : AVC\r\nFormat/Info                              : Advanced Video Codec\r\nFormat profile                           :   \r\nFormat settings, CABAC                   : Yes\r\nFormat settings, ReFrames                : 4 frames\r\nCodec ID                                 : avc1\r\nCodec ID/Info                            : Advanced Video Coding\r\nDuration                                 : 41mn 8s\r\nBit rate                                 : 1 030 Kbps\r\nWidth                                    : 960 pixels\r\nHeight                                   : 540 pixels\r\nDisplay aspect ratio                     : 16:9\r\nFrame rate mode                          : Variable\r\nFrame rate                               : 25.000 fps\r\nMinimum frame rate                       : 3.571 fps\r\nMaximum frame rate                       : 25.000 fps\r\nColor space                              : YUV\r\nChroma subsampling                       : 4:2:0\r\nBit depth                                : 8 bits\r\nScan type                                : Progressive\r\nBits/(Pixel*Frame)                       : 0.079\r\nStream size                              : 303 MiB (88%)\r\nWriting library                          : x264 core 123 r2189 35cf912\r\n\r\nAudio\r\nID                                       : 2\r\nFormat                                   : AAC\r\nFormat/Info                              : Advanced Audio Codec\r\nFormat profile                           : LC\r\nCodec ID                                 : 40\r\nDuration                                 : 41mn 8s\r\nBit rate mode                            : Variable\r\nBit rate                                 : 128 Kbps\r\nChannel(s)                               : 2 channels\r\nChannel positions                        : Front: L R\r\nSampling rate                            : 48.0 KHz\r\nCompression mode                         : Lossy\r\nStream size                              : 37.7 MiB (11%)\r\nTitle                                    : Stereo\r\n\r\n\r\nPlease seed for others","torrent":{"xt":"urn:btih:f156454172102e7bb067b81035478cb483b7144b","amp;dn":"Hunting+Hitler+S01E06+%282015%29+x264","amp;tr":["udp%3A%2F%2Ftracker.leechers-paradise.org%3A6969","udp%3A%2F%2Fzer0day.ch%3A1337","udp%3A%2F%2Fopen.demonii.com%3A1337","udp%3A%2F%2Ftracker.coppersurfer.tk%3A6969","udp%3A%2F%2Fexodus.desync.com%3A6969"],"infoHash":"f156454172102e7bb067b81035478cb483b7144b","infoHashBuffer":{"type":"Buffer","data":[241,86,69,65,114,16,46,123,176,103,184,16,53,71,140,180,131,183,20,75]},"announce":[],"urlList":[]}}